<?xml version="1.0" standalone="no"?>
<!DOCTYPE svg PUBLIC "-//W3C//DTD SVG 20010904//EN"
 "http://www.w3.org/TR/2001/REC-SVG-20010904/DTD/svg10.dtd">
<svg version="1.0" xmlns="http://www.w3.org/2000/svg"
 width="100.000000pt" height="100.000000pt" viewBox="0 0 100.000000 100.000000"
 preserveAspectRatio="xMidYMid meet">
<metadata>
Created by potrace 1.14, written by Peter Selinger 2001-2017
</metadata>
<g transform="translate(0.000000,100.000000) scale(0.100000,-0.100000)"
fill="#000000" stroke="none">
<path d="M447 916 c-12 -13 -32 -26 -45 -30 -32 -10 -55 -50 -49 -83 4 -22 -2
-35 -34 -65 -27 -26 -39 -47 -39 -66 0 -15 -7 -38 -16 -50 -9 -13 -14 -38 -13
-61 3 -31 -4 -46 -34 -83 -38 -46 -46 -82 -26 -119 8 -16 4 -28 -24 -67 -36
-48 -40 -60 -38 -100 1 -22 60 -87 69 -77 3 3 26 -10 51 -28 45 -32 62 -36
109 -21 12 3 22 2 22 -2 0 -5 21 -8 47 -7 27 2 55 0 63 -4 24 -9 50 -10 44 -1
-3 4 -1 8 5 8 5 0 13 -4 16 -10 4 -6 17 -4 36 5 22 12 29 13 29 3 0 -11 2 -11
8 0 5 7 31 14 59 15 28 1 49 5 47 8 -2 3 8 11 22 18 30 13 37 14 30 2 -4 -5 4
-7 16 -3 13 3 17 7 9 10 -8 3 0 12 19 23 17 11 37 16 43 12 7 -4 5 2 -3 12
-13 17 -13 18 1 13 9 -4 16 -1 16 8 0 7 -5 10 -11 7 -6 -4 -5 0 2 9 9 11 10
18 2 23 -5 3 -10 14 -10 23 0 9 -14 32 -31 50 -16 17 -27 32 -23 32 3 0 1 6
-5 14 -14 17 2 31 22 20 10 -6 10 -4 0 7 -16 16 -17 33 -2 23 8 -5 8 -1 0 14
-6 11 -8 28 -4 38 4 11 3 15 -5 10 -7 -4 -10 4 -10 23 1 29 -38 101 -55 101
-5 0 -6 4 -3 9 6 9 -33 67 -75 112 -51 54 -51 55 -36 86 8 15 13 36 11 46 -3
23 -33 57 -49 57 -7 0 -26 14 -43 30 -40 38 -84 40 -115 6z"/>
<path d="M650 770 c-6 -11 -8 -20 -6 -20 3 0 10 9 16 20 6 11 8 20 6 20 -3 0
-10 -9 -16 -20z"/>
<path d="M350 50 c-9 -6 -10 -10 -3 -10 6 0 15 5 18 10 8 12 4 12 -15 0z"/>
</g>
</svg>
